<?xml version="1.0" encoding="utf-8"?>
<!-- Generator: Adobe Illustrator 22.1.0, SVG Export Plug-In . SVG Version: 6.00 Build 0)  -->
<svg version="1.1" id="圖層_1" xmlns="http://www.w3.org/2000/svg" xmlns:xlink="http://www.w3.org/1999/xlink" x="0px" y="0px"
	 viewBox="0 0 659.9 1156.8" style="enable-background:new 0 0 659.9 1156.8;" xml:space="preserve">
<g transform="translate(0.000000,2600.000000) scale(0.100000,-0.100000)">
	<path d="M14,20046.3c22-98,63-196,118-280c40-62,520-546,2531-2560c1365-1366,2520-2518,2568-2560c102-90,208-149,333-187
		c78-23,108-27,220-27s142,4,220,27c533,161,760,762,463,1228c-29,46-634,658-2271,2295l-2232,2233l2240,2242
		c1713,1715,2248,2256,2274,2300c75,129,109,243,118,388c22,389-229,729-617,836c-90,25-300,25-390,0c-95-26-176-62-255-114
		c-54-35-630-605-2583-2556c-1382-1381-2537-2540-2566-2576c-127-155-186-323-185-525C0,20155.3,7,20081.3,14,20046.3z"/>
</g>
</svg>
