<?xml version="1.0" encoding="utf-8"?>
<!-- Generator: Adobe Illustrator 21.0.2, SVG Export Plug-In . SVG Version: 6.00 Build 0)  -->
<svg version="1.1" id="圖層_1" xmlns="http://www.w3.org/2000/svg" xmlns:xlink="http://www.w3.org/1999/xlink" x="0px" y="0px"
	 viewBox="0 0 15 15" style="enable-background:new 0 0 15 15;" xml:space="preserve">
<style type="text/css">
	.st0{fill:#072E00;}
	.st1{fill:#FFFFFF;}
</style>
<circle class="st0" cx="7.5" cy="6.7" r="4.9"/>
<path class="st1" d="M10.2,10.2c-0.7,0.6-1.7,0.9-2.7,0.9s-1.9-0.3-2.7-0.9c-1-0.8-1.7-2.1-1.7-3.5c0-0.3,0-0.5,0.1-0.8
	c0-0.1,0-0.2,0.1-0.3c0-0.1,0.1-0.2,0.1-0.3c0-0.1,0.1-0.3,0.1-0.4c0.8,0.3,1.8,0.4,2.8,0.2C7.8,4.9,9,3.8,9.7,3
	c0.1,0.6,0.3,1.2,0.7,1.8C10.6,5,10.8,5.2,11,5.3c0.1,0.1,0.3,0.2,0.4,0.3c0.1,0.1,0.3,0.2,0.4,0.2c0,0,0,0,0,0.1
	c0,0.3,0.1,0.5,0.1,0.8C11.9,8.1,11.2,9.4,10.2,10.2z"/>
<g>
	<path class="st0" d="M7.5,9.5c-0.7,0-1.2-0.4-1.5-1H5.4c0.3,0.9,1.1,1.5,2.1,1.5s1.8-0.6,2.1-1.5H9C8.7,9.1,8.2,9.5,7.5,9.5z"/>
</g>
<g>
	<circle class="st0" cx="5.7" cy="6.6" r="0.7"/>
	<circle class="st0" cx="9.3" cy="6.6" r="0.7"/>
</g>
<g>
	<path class="st0" d="M10.7,10.5c0.8-0.6,1.3-1.4,1.6-2.4c0.6,0,1.1-0.6,1.1-1.2c0-0.4-0.2-0.8-0.5-1V5.6c0-2.9-2.4-5.3-5.4-5.3
		C4.5,0.3,2,2.7,2,5.6v0.3l0,0l0,0c-0.3,0.3-0.4,0.6-0.4,1c0,0.6,0.5,1.2,1.2,1.2c0.3,1,0.8,1.8,1.6,2.4L7,11.2l1.2-0.1l2-0.4
		L10.7,10.5z M12.5,6.4c0.2,0.1,0.3,0.3,0.3,0.5s-0.2,0.5-0.4,0.5c0-0.2,0.1-0.5,0.1-0.7C12.5,6.6,12.5,6.5,12.5,6.4z M2.2,6.9
		c0-0.2,0.1-0.4,0.4-0.5c0,0.1,0,0.2,0,0.3c0,0.3,0,0.5,0.1,0.7C2.3,7.4,2.2,7.2,2.2,6.9z M10.2,10.2c-0.7,0.6-1.7,0.9-2.7,0.9
		s-1.9-0.3-2.7-0.9c-1-0.8-1.7-2.1-1.7-3.5c0-0.3,0-0.5,0.1-0.8c0-0.1,0-0.2,0.1-0.3c0-0.1,0.1-0.2,0.1-0.3c0-0.1,0.1-0.3,0.1-0.4
		c0.8,0.3,1.8,0.4,2.8,0.2C7.8,4.9,9,3.8,9.7,3c0.1,0.6,0.3,1.2,0.7,1.8C10.6,5,10.8,5.2,11,5.3c0.1,0.1,0.3,0.2,0.4,0.3
		c0.1,0.1,0.3,0.2,0.4,0.2c0,0,0,0,0,0.1c0,0.3,0.1,0.5,0.1,0.8C11.9,8.1,11.2,9.4,10.2,10.2z"/>
</g>
<path class="st1" d="M12.5,6.4c0.2,0.1,0.3,0.3,0.3,0.5s-0.2,0.5-0.4,0.5c0-0.2,0.1-0.5,0.1-0.7C12.5,6.6,12.5,6.5,12.5,6.4z"/>
<path class="st1" d="M2.2,6.9c0-0.2,0.1-0.4,0.4-0.5c0,0.1,0,0.2,0,0.3c0,0.3,0,0.5,0.1,0.7C2.3,7.4,2.2,7.2,2.2,6.9z"/>
</svg>
