<?xml version="1.0" encoding="utf-8"?>
<!-- Generator: Adobe Illustrator 22.1.0, SVG Export Plug-In . SVG Version: 6.00 Build 0)  -->
<svg version="1.1" id="圖層_1" xmlns="http://www.w3.org/2000/svg" xmlns:xlink="http://www.w3.org/1999/xlink" x="0px" y="0px"
	 viewBox="0 0 15 15" enable-background="new 0 0 15 15" xml:space="preserve">
<path fill="#FFFFFF" d="M12.3,8.1c0.6,0,1.1-0.6,1.1-1.2c0-0.4-0.2-0.8-0.5-1V5.6c0-2.9-2.4-5.3-5.4-5.3C4.5,0.3,2,2.7,2,5.6v0.3h0
	v0C1.7,6.2,1.6,6.5,1.6,6.9c0,0.6,0.5,1.2,1.2,1.2c0.3,1,0.8,1.8,1.6,2.4c-0.2,0.2-0.5,0.4-0.7,0.6c-1,1-1.6,2.4-1.6,3.9h3.5h1.3
	h1.4h1.3H13c0-1.5-0.6-2.9-1.6-3.9c-0.2-0.2-0.4-0.4-0.7-0.6C11.5,9.9,12,9.1,12.3,8.1z"/>
<g>
	<path fill="#072E00" d="M12.3,8.1c0.6,0,1.1-0.6,1.1-1.2c0-0.4-0.2-0.8-0.5-1V5.6c0-2.9-2.4-5.3-5.4-5.3C4.5,0.3,2,2.7,2,5.6v0.3h0
		v0C1.7,6.2,1.6,6.5,1.6,6.9c0,0.6,0.5,1.2,1.2,1.2c0.3,1,0.8,1.8,1.6,2.4c-0.2,0.2-0.5,0.4-0.7,0.6c-1,1-1.6,2.4-1.6,3.9h3.5h1.3
		l0.3-1.9c0,0,0-0.1,0.1-0.1h0.7c0.1,0,0.1,0,0.1,0.1L8.2,15h1.3H13c0-1.5-0.6-2.9-1.6-3.9c-0.2-0.2-0.4-0.4-0.7-0.6
		C11.5,9.9,12,9.1,12.3,8.1z M12.5,6.4c0.2,0.1,0.3,0.3,0.3,0.5c0,0.2-0.2,0.5-0.4,0.5c0-0.2,0.1-0.5,0.1-0.7
		C12.5,6.6,12.5,6.5,12.5,6.4z M2.2,6.9c0-0.2,0.1-0.4,0.4-0.5c0,0.1,0,0.2,0,0.3c0,0.3,0,0.5,0.1,0.7C2.3,7.4,2.2,7.2,2.2,6.9z
		 M8.2,11.8l-0.2,0.8c0,0-0.1,0.1-0.1,0.1H7.2c0,0-0.1,0-0.1-0.1l-0.2-0.8c0,0,0-0.1,0-0.1c0,0,0,0,0.1,0h0.5h0.5
		C8.1,11.7,8.1,11.7,8.2,11.8C8.2,11.8,8.2,11.8,8.2,11.8z M10.2,10.2c-0.7,0.6-1.7,0.9-2.7,0.9c-1,0-1.9-0.3-2.7-0.9
		c-1-0.8-1.7-2.1-1.7-3.5c0-0.3,0-0.5,0.1-0.8c0-0.1,0-0.2,0.1-0.3c0-0.1,0.1-0.2,0.1-0.3c0-0.1,0.1-0.3,0.1-0.4
		c0.8,0.3,1.8,0.4,2.8,0.2C7.8,4.9,9,3.8,9.7,3c0.1,0.6,0.3,1.2,0.7,1.8C10.6,5,10.8,5.2,11,5.3c0.1,0.1,0.3,0.2,0.4,0.3
		c0.1,0.1,0.3,0.2,0.4,0.2c0,0,0,0,0,0.1c0,0.3,0.1,0.5,0.1,0.8C11.9,8.1,11.2,9.4,10.2,10.2z"/>
	<path fill="#072E00" d="M6.2,7.1c0.1-0.1,0.2-0.3,0.2-0.5c0-0.2-0.1-0.4-0.2-0.5C6.2,6,6.1,6,6.1,6C6,5.9,5.8,5.8,5.7,5.8
		c-0.1,0-0.3,0-0.4,0.1c0,0-0.1,0.1-0.1,0.1C5,6.2,5,6.4,5,6.6C5,6.8,5,6.9,5.2,7.1c0.1,0.1,0.3,0.2,0.5,0.2
		C5.9,7.3,6.1,7.2,6.2,7.1z"/>
	<path fill="#072E00" d="M9.5,8.6H9c-0.1,0-0.1,0-0.1,0.1C8.7,8.8,8.6,9,8.5,9.1c-0.3,0.2-0.6,0.3-1,0.3c-0.4,0-0.7-0.1-1-0.3
		C6.4,9,6.3,8.8,6.2,8.7c0,0-0.1-0.1-0.1-0.1H5.6c0,0-0.1,0-0.1,0c0,0,0,0.1,0,0.1C5.6,9.1,5.7,9.3,6,9.6c0,0,0.1,0.1,0.1,0.1
		C6.5,10,7,10.1,7.5,10.1c0.5,0,1-0.1,1.4-0.4c0,0,0.1-0.1,0.1-0.1c0.3-0.2,0.5-0.5,0.6-0.8C9.6,8.7,9.6,8.7,9.5,8.6
		C9.5,8.6,9.5,8.6,9.5,8.6z"/>
	<path fill="#072E00" d="M9.7,6C9.6,5.9,9.5,5.8,9.3,5.8c-0.1,0-0.3,0-0.4,0.1c0,0-0.1,0.1-0.1,0.1C8.7,6.2,8.6,6.4,8.6,6.6
		c0,0.2,0.1,0.4,0.2,0.5C9,7.2,9.1,7.3,9.3,7.3c0.2,0,0.4-0.1,0.5-0.2c0.1-0.1,0.2-0.3,0.2-0.5c0-0.2-0.1-0.4-0.2-0.5
		C9.8,6,9.8,6,9.7,6z"/>
</g>
</svg>
