<?xml version="1.0" encoding="utf-8"?>
<!-- Generator: Adobe Illustrator 22.1.0, SVG Export Plug-In . SVG Version: 6.00 Build 0)  -->
<svg version="1.1" id="圖層_1" xmlns="http://www.w3.org/2000/svg" xmlns:xlink="http://www.w3.org/1999/xlink" x="0px" y="0px"
	 viewBox="0 0 15 15" enable-background="new 0 0 15 15" xml:space="preserve">
<path fill="#FFFFFF" d="M2.6,15h9.7c0-1.6-0.8-3-1.9-3.9c0.1-0.1,0.3-0.3,0.4-0.4h1.5V6.9V6.6v0h0c0-2.6-2.2-4.7-4.8-4.7
	S2.7,4,2.7,6.6h0v0v0.3v3.8h1.6c0.1,0.1,0.2,0.2,0.4,0.4C3.4,12,2.6,13.4,2.6,15z"/>
<g>
	<path fill="#072E00" d="M2.6,15h9.7c0-1.6-0.8-3-1.9-3.9c0.1-0.1,0.3-0.3,0.4-0.4h1.5V6.9V6.6v0h0c0-2.6-2.2-4.7-4.8-4.7
		S2.7,4,2.7,6.6h0v0v0.3v3.8h1.6c0.1,0.1,0.2,0.2,0.4,0.4C3.4,12,2.6,13.4,2.6,15z M3.7,7.8c0-0.4,0-0.7,0.1-1
		C5,6.6,6.1,6.1,6.9,5.5C6.7,6,6.6,6.4,6.6,6.4c1.5,0,2.9-0.7,3.8-1.3c0.7,0.7,1.1,1.6,1.1,2.7c0,1.2-0.5,2.3-1.4,3
		c-0.7,0.6-1.5,0.9-2.5,0.9c-0.9,0-1.8-0.3-2.5-0.9C4.2,10,3.7,8.9,3.7,7.8z"/>
	<path fill="#072E00" d="M9.2,8.3c0.2,0,0.3-0.1,0.5-0.2c0.1-0.1,0.2-0.3,0.2-0.5c0-0.2-0.1-0.3-0.2-0.5C9.5,7,9.3,7,9.2,7
		C9,7,8.8,7,8.7,7.2C8.6,7.3,8.5,7.4,8.5,7.6c0,0.2,0.1,0.3,0.2,0.5C8.8,8.2,9,8.3,9.2,8.3z"/>
	<path fill="#072E00" d="M6.4,9.5c0,0-0.1-0.1-0.1-0.1H5.8c0,0-0.1,0-0.1,0c0,0,0,0,0,0.1c0.1,0.3,0.3,0.5,0.5,0.7
		c0.4,0.3,0.8,0.5,1.3,0.5c0.5,0,1-0.2,1.3-0.5c0.2-0.2,0.4-0.5,0.5-0.7c0,0,0-0.1,0-0.1c0,0,0,0-0.1,0H8.8c0,0-0.1,0-0.1,0.1
		C8.6,9.6,8.5,9.7,8.4,9.8c-0.2,0.2-0.5,0.3-0.9,0.3c-0.4,0-0.7-0.1-0.9-0.3C6.5,9.7,6.4,9.6,6.4,9.5z"/>
	<path fill="#072E00" d="M5.9,8.3c0.2,0,0.3-0.1,0.5-0.2c0.1-0.1,0.2-0.3,0.2-0.5c0-0.2-0.1-0.3-0.2-0.5C6.3,7,6.1,7,5.9,7
		C5.7,7,5.6,7,5.5,7.2C5.3,7.3,5.3,7.4,5.3,7.6c0,0.2,0.1,0.3,0.2,0.5C5.6,8.2,5.7,8.3,5.9,8.3z"/>
</g>
<circle fill="#072E00" cx="4.2" cy="2.4" r="1.3"/>
<circle fill="#072E00" cx="10.8" cy="2.4" r="1.3"/>
</svg>
