<?xml version="1.0" encoding="utf-8"?>
<!-- Generator: Adobe Illustrator 21.0.2, SVG Export Plug-In . SVG Version: 6.00 Build 0)  -->
<svg version="1.1" id="圖層_1" xmlns="http://www.w3.org/2000/svg" xmlns:xlink="http://www.w3.org/1999/xlink" x="0px" y="0px"
	 viewBox="0 0 15 15" style="enable-background:new 0 0 15 15;" xml:space="preserve">
<style type="text/css">
	.st0{fill:#FFFFFF;}
	.st1{fill:#072E00;}
</style>
<path class="st0" d="M2.6,15h9.7c0-1.6-0.8-3-1.9-3.9c0.1-0.1,0.3-0.3,0.4-0.4h1.5V6.9V6.6l0,0l0,0c0-2.6-2.2-4.7-4.8-4.7
	S2.7,4,2.7,6.6l0,0l0,0v0.3v3.8h1.6c0.1,0.1,0.2,0.2,0.4,0.4C3.4,12,2.6,13.4,2.6,15z"/>
<g>
	<path class="st1" d="M2.6,15h9.7c0-1.6-0.8-3-1.9-3.9c0.1-0.1,0.3-0.3,0.4-0.4h1.5V6.9V6.6l0,0l0,0c0-2.6-2.2-4.7-4.8-4.7
		S2.7,4,2.7,6.6l0,0l0,0v0.3v3.8h1.6c0.1,0.1,0.2,0.2,0.4,0.4C3.4,12,2.6,13.4,2.6,15z M3.7,7.8c0-0.4,0-0.7,0.1-1
		C5,6.6,6.1,6.1,6.9,5.5C6.7,6,6.6,6.4,6.6,6.4c1.5,0,2.9-0.7,3.8-1.3c0.7,0.7,1.1,1.6,1.1,2.7c0,1.2-0.5,2.3-1.4,3
		c-0.7,0.6-1.5,0.9-2.5,0.9c-0.9,0-1.8-0.3-2.5-0.9C4.2,10,3.7,8.9,3.7,7.8z"/>
</g>
<circle class="st1" cx="4.2" cy="2.4" r="1.3"/>
<circle class="st1" cx="10.8" cy="2.4" r="1.3"/>
<g>
	<path class="st1" d="M7.6,10.2c-0.6,0-1-0.3-1.3-0.8H5.8c0.2,0.8,1,1.3,1.8,1.3s1.6-0.6,1.8-1.3H8.9C8.6,9.9,8.1,10.2,7.6,10.2z"/>
</g>
<g>
	<circle class="st1" cx="6" cy="7.6" r="0.7"/>
	<circle class="st1" cx="9.2" cy="7.6" r="0.7"/>
</g>
</svg>
