<?xml version="1.0" encoding="utf-8"?>
<!-- Generator: Adobe Illustrator 21.0.2, SVG Export Plug-In . SVG Version: 6.00 Build 0)  -->
<svg version="1.1" id="圖層_1" xmlns="http://www.w3.org/2000/svg" xmlns:xlink="http://www.w3.org/1999/xlink" x="0px" y="0px"
	 viewBox="0 0 15 15" style="enable-background:new 0 0 15 15;" xml:space="preserve">
<style type="text/css">
	.st0{fill:#072E00;}
	.st1{fill:#FFFFFF;}
</style>
<circle class="st0" cx="4.2" cy="2.4" r="1.3"/>
<circle class="st0" cx="10.8" cy="2.4" r="1.3"/>
<path class="st0" d="M7.5,1.9C4.9,1.9,2.7,4,2.7,6.6v0.3v3.8h1.6c0.1,0.1,0.2,0.2,0.4,0.4c0,0,0,0,0.1,0c0.8,0.6,1.7,1,2.8,1
	c1.1,0,2-0.4,2.8-1c0,0,0.1,0,0.1,0c0.1-0.1,0.2-0.2,0.4-0.4c0,0,0,0,0,0h0c0,0,0,0,0,0h1.5V6.9V6.6C12.3,4,10.1,1.9,7.5,1.9z
	 M10.2,10.7l-5.2,0C4.2,9.9,3.7,8.9,3.7,7.8c0-0.4,0-0.7,0.1-1C5,6.6,6.1,6.1,6.9,5.5C6.7,6,6.6,6.4,6.6,6.4c1.5,0,2.9-0.7,3.8-1.3
	c0.7,0.7,1.1,1.6,1.1,2.7C11.5,8.9,11,10,10.2,10.7z"/>
<path class="st1" d="M3.7,7.8c0-0.4,0-0.7,0.1-1C5,6.6,6.1,6.1,6.9,5.5C6.7,6,6.6,6.4,6.6,6.4c1.5,0,2.9-0.7,3.8-1.3
	c0.7,0.7,1.1,1.6,1.1,2.7c0,1.2-0.5,2.3-1.4,3c-0.7,0.6-1.5,0.9-2.5,0.9c-0.9,0-1.8-0.3-2.5-0.9C4.2,10,3.7,8.9,3.7,7.8z"/>
<g>
	<path class="st0" d="M7.5,10.2c-0.6,0-1-0.3-1.3-0.8H5.7c0.2,0.8,1,1.3,1.8,1.3s1.6-0.6,1.8-1.3H8.8C8.5,9.9,8.1,10.2,7.5,10.2z"/>
</g>
<g>
	<circle class="st0" cx="5.9" cy="7.6" r="0.7"/>
	<circle class="st0" cx="9.1" cy="7.6" r="0.7"/>
</g>
</svg>
