<?xml version="1.0" encoding="utf-8"?>
<!-- Generator: Adobe Illustrator 22.1.0, SVG Export Plug-In . SVG Version: 6.00 Build 0)  -->
<svg version="1.1" id="圖層_1" xmlns="http://www.w3.org/2000/svg" xmlns:xlink="http://www.w3.org/1999/xlink" x="0px" y="0px"
	 viewBox="0 0 320 100" enable-background="new 0 0 320 100" xml:space="preserve">
<g>
	<g>
		<g>
			<path fill="#63CF9C" stroke="#FFFFFF" stroke-width="1.2655" stroke-linecap="round" stroke-linejoin="round" d="M94,80.9
				C93.9,80.9,93.9,80.9,94,80.9c-1.2,0-2.1-0.9-2.1-2s0.9-2,2-2l0,0c0.2,0,12,0,24.7-3.9c16.8-5.1,27.3-14,31.2-26.6
				c2.6-8.3,0.3-15.7-6-19.8c-6.3-4.2-17-4.6-26.7,3.7c-8.3,7.1-24,6.1-24.7,6c-1.1-0.1-2-1-1.9-2.2c0.1-1.1,1-2,2.2-1.9l0,0
				c0.1,0,14.7,0.9,21.8-5.1c5-4.3,10.8-6.9,16.6-7.4c5.4-0.5,10.7,0.7,14.9,3.5c3.7,2.4,6.4,5.9,7.8,10c1.5,4.4,1.4,9.4-0.2,14.4
				c-2.4,7.7-7.1,14.3-14,19.5c-5.4,4.1-12.2,7.4-20.1,9.8C106.6,80.9,94.9,80.9,94,80.9z"/>
		</g>
		<path fill="#FFFFFF" d="M14.5,20.4c0,0,17.8-8.3,33.4-8.1c17.6,0.3,62.7,14.4,62.7,14.4s-1.2,15.8-0.9,25
			c0.3,9.2,2.6,29.6,2.6,29.6s-43.2,10.9-66.2,7.8C23.2,86,14.3,80,14.3,80S8.5,68.2,8.5,50.6C8.5,38.2,14.5,20.4,14.5,20.4z"/>
		<path fill="#63CF9C" d="M46.8,12.3c-15.3,0.1-32.3,8.1-32.3,8.1s-6,17.8-6,30.2c0,17.6,5.8,29.4,5.8,29.4s8.8,6,31.5,9.1
			C38.9,64.2,39.5,37.3,46.8,12.3z"/>
		<path fill="none" stroke="#63CF9C" stroke-width="0.5522" stroke-linecap="round" stroke-linejoin="round" d="M45.8,89.1
			c-6.9-24.9-6.3-51.8,1.1-76.8"/>
	</g>
	<path fill="none" stroke="#FFFFFF" stroke-width="1.2655" stroke-linecap="round" stroke-linejoin="round" d="M14.5,20.4
		c0,0,17.8-8.3,33.4-8.1c17.6,0.3,62.7,14.4,62.7,14.4s-1.2,15.8-0.9,25c0.3,9.2,2.6,29.6,2.6,29.6s-43.2,10.9-66.2,7.8
		C23.2,86,14.3,80,14.3,80S8.5,68.2,8.5,50.6C8.5,38.2,14.5,20.4,14.5,20.4z"/>
</g>
<g>
	<g>
		<path fill="#63CF9C" d="M73.4,87.5C73.3,87.5,73.3,87.5,73.4,87.5c-0.2,0-0.2-0.1-0.3-0.2c-0.1-0.3-0.3-0.4-0.6-0.6
			c-0.1,0-0.2-0.1-0.3-0.1C72.1,86.7,72,86.8,72,87c0,0.1-0.1,0.2-0.2,0.2l0,0c-0.3,0-0.5-0.1-0.6-0.4c-0.1-0.2-0.1-0.4-0.1-0.6
			c0-0.1,0-0.4-0.1-0.4c-0.4-0.6-0.4-1.4-0.4-2.1c0-0.6,0-1.2-0.2-1.7c-0.7-1.9-2-2.8-3.6-3.6c-0.1,0-0.1-0.1-0.1-0.2
			c-0.1-0.2-0.2-0.3-0.6-0.4c-0.3-0.1-0.6-0.2-0.8-0.5c-0.2-0.2-0.3-0.4-0.4-0.6c-0.2-0.2-0.3-0.5-0.5-0.7l-0.1-0.1
			c0-0.1,0-0.2,0.1-0.3c-0.2-0.2-0.4-0.4-0.5-0.7c-0.1-0.3-0.1-0.6,0-0.9c-0.2-0.2-0.4-0.5-0.6-0.7c-0.4-0.6-0.4-1.2-0.5-1.8
			c-0.1-0.6-0.1-1.2-0.6-1.8c-0.1-0.1-0.1-0.3,0-0.4l0.1-0.1c-0.2-0.2-0.7-0.3-1.4-0.4c-0.1,0-0.2-0.1-0.2-0.3
			c0-0.4-0.1-1.1,0.3-1.5c-0.2-0.9,0-1.7,0.3-2.5c0.2-0.6,0.4-1.2,0.4-1.9c0-0.1,0-0.1,0.1-0.2c0-0.1,0.1-0.1,0.2-0.1l0,0
			c0-0.3,0-0.6,0.1-1c0-0.5,0.1-0.9,0-1.4c-0.2-0.9-0.1-1.8,0.2-2.5c0.1-0.2,0.2-0.5,0.3-0.7c0.1-0.5,0.3-0.9,0.7-1.4
			c0.4-0.4,0.6-0.4,0.9-0.4h0.1c0-0.1-0.1-0.1-0.1-0.2c-0.1-0.1-0.2-0.3-0.2-0.6c0-0.2,0.2-0.4,0.5-0.7s0.5-0.6,0.7-1
			c0.2-0.3,0.4-0.6,0.6-0.9c0.3-0.4,0.4-0.6,0.5-0.9c0.1-0.1,0.1-0.3,0.2-0.5s0.3-0.5,0.5-0.6c0.2-0.2,0.4-0.4,0.5-0.7
			c0-0.1,0.1-0.3,0.1-0.5c0.3-1,0.7-2.4,1.6-2.7c0.2-0.5,0.6-1.3,1-2.1c0.5-0.9,1-1.5,1.4-1.7c0-0.1,0-0.1,0-0.2
			c0-0.1,0.1-0.3,0.2-0.4c0.3-0.1,0.6-0.2,0.9-0.4c0.1-0.7,0.4-0.9,0.8-1.2c0.1-0.1,0.3-0.2,0.4-0.3c0.1-0.2,0.1-0.4,0.1-0.5
			c0-0.2,0-0.5,0.3-0.9c0-0.5,0.2-0.7,0.4-1c0-0.1,0.1-0.1,0.1-0.2c1.1-1.7,1.7-2.3,3.5-3.1c0.2-0.1,2.1-0.9,3.3-1.1
			c0-0.1,0.1-0.3,0.1-0.5c0,0,0,0,0-0.1s0-0.1,0-0.2l0,0l0,0c0.4-0.6,0.7-1.1,1.2-1.4c1.2-0.6,1.7,0,2.1,0.6
			c0.2,0.4,0.5,0.7,0.9,0.7c0.1,0,0.2,0.1,0.2,0.2c0.2,0.6,1.6,0.9,2.3,1c0.7,0,1,0.1,1.2,0.3s0.1,0.5,0.1,0.7s0,0.5,0,0.8
			c0.1,0,0.2,0,0.3,0c0.2,0,0.6,0,0.8,0.3c0.1,0.1,0.1,0.1,0.1,0.2c0,0.4-0.5,0.7-1.2,1.3c-0.2,0.2-0.5,0.4-0.6,0.5
			c-0.5,0.6-0.7,0.9-0.9,1.6c-0.2,0.6-0.2,2.3,0.3,3.1c0.1,0.2,0.2,0.3,0.4,0.3c0.1,0,0.2,0.1,0.2,0.2c0,0.1-0.1,0.2-0.2,0.3
			s-0.2,0.7-0.3,1c-0.1,0.5-0.2,1-0.4,1.2c-0.4,0.4-0.6,1.1-0.7,1.7c-0.1,0.2-0.1,0.5-0.2,0.7c-0.2,0.7-0.5,1.3-1.2,1.6
			c-0.1,0.4-0.3,0.8-0.5,1.1c-0.2,0.4-0.5,0.8-0.4,1.1c0.2,1.5-0.2,3-0.6,4.5c-0.2,0.7-0.4,1.5-0.5,2.2v0.1c-0.4,2.4-0.9,4.9-1.8,7
			c-0.1,0.1-0.1,0.5-0.2,0.9c-0.2,1-0.3,1.6-0.6,1.7l0,0c-0.3,0.6-1.1,2.1-1.4,2.4l0,0c-0.5,0.6-1.2,1.5-1.2,2.1
			c0,0.9-1.4,1.8-1.5,1.8c-0.8,0.5-1.7,1.5-2.3,2.8c-0.6,1.2-1,2.6-1,3.6c0,0.7,0,1.4,0,2.1c0,0.6,0,1.2,0,1.8
			c0,0.5-0.2,0.8-0.3,1.1c-0.2,0.4-0.3,0.6-0.1,1.1c0,0.1,0,0.2,0,0.3c0,0,0,0-0.1,0.1v0.1c0,0.2-0.1,0.4-0.4,0.7
			C73.5,87.5,73.4,87.5,73.4,87.5z"/>
	</g>
</g>
<g>
	
		<path fill="#FFFFFF" stroke="#FFFFFF" stroke-width="3.5" stroke-linecap="round" stroke-linejoin="round" stroke-miterlimit="10" d="
		M155.8,33.5c-1.4,1-2.8,0.8-3.7-1c-0.2-0.5-0.5-1-0.8-1.5c-5.7,1.4-12.5,2.4-17.9,2.7c-2.1,0.2-3.1-0.8-3.1-2.6
		c0-1.7,0.8-2.6,2.8-2.5c0.6,0,1.2,0,1.9,0.1c1.6-2.4,2.9-5.1,4.2-7.8c1-2,2.5-2.2,4.2-1.5s2.4,2.1,1,4.2c-1.2,1.8-3.1,3.6-5.1,5.2
		c3.5,0,7-0.1,10.5-0.3c-0.7-1-1.3-2-2-2.9c-0.5-0.7-0.4-1.4,0.2-1.9c0.5-0.5,1.3-0.4,2,0c2.3,1.5,4.6,3.7,6.5,5.9
		C157.5,31.1,157.2,32.5,155.8,33.5z M154.6,36.8v9.5c0,1.6-0.9,2.2-2.5,2.2s-2.6-0.6-2.6-2.2v-0.1h-11.4v0.1c0,1.6-0.9,2.2-2.5,2.2
		s-2.6-0.6-2.6-2.2v-9.5c0-1.3,0.7-2,2-2h17.4C153.9,34.8,154.6,35.5,154.6,36.8z M149.6,43.4V38c0-0.2-0.2-0.4-0.4-0.4h-10.6
		c-0.2,0-0.4,0.2-0.4,0.4v5.4H149.6z"/>
	
		<path fill="#FFFFFF" stroke="#FFFFFF" stroke-width="3.5" stroke-linecap="round" stroke-linejoin="round" stroke-miterlimit="10" d="
		M163.7,31.9c-0.9-1-1.8-2-2.5-2.7c-0.4-0.4-0.6-1-0.2-1.5c0.3-0.5,0.8-0.6,1.5-0.4c1,0.3,2.4,1.1,3.5,1.8c1.2,0.8,1.4,1.8,0.5,2.8
		C165.6,32.9,164.6,32.9,163.7,31.9z M161.5,21.7c-0.4-0.5-0.5-1.1-0.2-1.6s0.8-0.6,1.5-0.4c1,0.3,2.2,1,3.3,1.7
		c1.2,0.8,1.3,1.8,0.5,2.8c-0.8,0.9-1.9,1-2.8-0.1C162.9,23.2,162.1,22.3,161.5,21.7z M167.6,36.7c-0.3,3-1,6.8-1.6,9.1
		c-0.5,1.8-1.6,2.2-3.1,1.6c-1.5-0.6-2-1.8-1.1-3.4c1.1-2,2.5-5,3.5-7.9c0.3-0.7,0.8-1,1.5-0.8C167.4,35.5,167.7,36,167.6,36.7z
		 M167.4,34.7c-0.7-0.3-0.9-0.9-0.5-1.6c0.4-0.7,0.7-1.4,1-2.2c0.2-0.5,0.5-0.7,1-0.5c0.5,0.1,0.6,0.4,0.6,1
		c-0.1,0.9-0.3,1.9-0.5,2.7C168.7,34.8,168.1,35.1,167.4,34.7z M167.8,24c0.4-1.2,0.6-2.5,0.8-3.4c0.2-1,0.8-1.2,1.7-1
		c0.8,0.2,1.2,0.7,0.9,1.6c-0.2,0.8-0.8,1.9-1.5,2.7c0.3,0,0.7,0,0.9-0.1l0.4-1c0.3-1,1.1-1.2,1.8-0.9c0.8,0.3,1.1,0.9,0.7,1.8
		c-0.5,1.2-1.6,2.7-2.6,3.8c0.4,0,0.8-0.1,1.2-0.1l-0.1-0.2c-0.2-0.5-0.1-0.8,0.3-1c0.4-0.2,0.7-0.1,1.1,0.2
		c0.4,0.5,0.8,1.1,1.2,1.9c0.3,0.6,0.1,1.1-0.5,1.4s-1.2,0.1-1.4-0.6c0-0.1,0-0.1-0.1-0.2c-1.4,0.7-2.9,1.2-4,1.3
		c-0.9,0.2-1.6-0.2-1.7-1c-0.1-0.9,0.2-1.5,1.2-1.5c0.2,0,0.4,0,0.6,0c0.3-0.5,0.6-1,0.9-1.6c-0.4,0.1-0.9,0.2-1.3,0.3
		c-0.8,0.2-1.5-0.1-1.6-1C166.8,24.6,167,24.1,167.8,24z M188.2,43.4c-0.2,1.2-0.4,2.1-0.7,3c-0.8,2.8-4.3,3.1-9.1,1.1
		c-0.7-0.3-0.9-0.8-0.7-1.4c0.2-0.6,0.6-0.8,1.3-0.7c3.5,0.7,4.2,0.5,4.4-0.2c0.1-0.5,0.2-0.9,0.3-1.4c0-0.2-0.1-0.4-0.3-0.4H171
		c-1.9,0-2.9-0.5-2.5-2.1c0.3-1,0.5-1.6,0.8-2.3c0.4-0.9,1-1.2,2.3-1.2h10.8c0.2,0,0.3-0.1,0.3-0.3V37c0-0.2-0.1-0.3-0.3-0.3h-12.3
		c-0.7,0-1.2-0.4-1.2-1.2c0-0.7,0.4-1.2,1.2-1.2H185c1.3,0,2,0.7,2,2V38c0,1.3-0.7,2-2,2h-11.9c-0.2,0-0.3,0.1-0.3,0.3
		c-0.1,0.2-0.1,0.3-0.1,0.5c-0.1,0.2,0.1,0.3,0.3,0.3h13.3C187.8,41.1,188.5,42,188.2,43.4z M171.4,30.8c0.2,0.6,0.5,1.4,0.6,2.1
		c0.1,0.7-0.1,1.2-0.9,1.2c-0.9,0.1-1.2-0.2-1.2-1.1c0-0.7,0-1.4,0-2.1c0-0.5,0.2-0.7,0.7-0.8S171.2,30.3,171.4,30.8z M172.4,32.6
		c-0.2-0.7-0.3-1.3-0.5-1.8c-0.1-0.5,0-0.8,0.4-0.9s0.7-0.1,1,0.3c0.4,0.5,0.8,1.1,1.1,1.7s0.2,1.2-0.5,1.5
		C173.1,33.5,172.5,33.2,172.4,32.6z M173.8,22.7c0-0.6,0.3-0.9,1-0.9h1.4v-1c0-0.9,0.6-1.5,1.7-1.5c1.1,0,1.7,0.6,1.7,1.5v1h1.3
		c0.6,0,1,0.3,1,0.9s-0.3,0.9-1,0.9h-6.1C174.2,23.7,173.8,23.3,173.8,22.7z M175.5,26c-0.6,0-0.9-0.3-0.9-0.9
		c0-0.5,0.3-0.9,0.9-0.9h4.6c0.6,0,0.9,0.3,0.9,0.9c0,0.5-0.3,0.9-0.9,0.9H175.5z M174.6,27.4c0-0.5,0.3-0.9,0.9-0.9h4.6
		c0.6,0,0.9,0.3,0.9,0.9c0,0.5-0.3,0.9-0.9,0.9h-4.6C175,28.2,174.6,27.9,174.6,27.4z M174.6,30.5c0-1.1,0.6-1.7,1.7-1.7h3.2
		c1.1,0,1.7,0.6,1.7,1.7v1.7c0,1.1-0.6,1.7-1.7,1.7h-3.2c-1.1,0-1.7-0.6-1.7-1.7V30.5z M177.2,31.9c0,0.2,0.1,0.3,0.3,0.3h0.9
		c0.2,0,0.3-0.1,0.3-0.3v-1c0-0.2-0.1-0.3-0.3-0.3h-0.9c-0.2,0-0.3,0.1-0.3,0.3V31.9z M182.1,24c0.4-1.2,0.7-2.4,0.9-3.4
		c0.2-0.9,0.8-1.2,1.7-1c0.8,0.2,1.1,0.8,0.8,1.6c-0.2,0.8-0.8,1.9-1.4,2.7c0.3,0,0.6,0,0.9-0.1l0.5-1c0.4-1,1.1-1.2,1.9-0.8
		c0.7,0.3,1,1,0.6,1.8c-0.5,1.2-1.7,2.5-2.7,3.5c0.4,0,0.9-0.1,1.3-0.1v-0.1c-0.2-0.5,0-0.8,0.3-1s0.7-0.1,1,0.3
		c0.4,0.5,0.8,1.2,1.1,1.9c0.2,0.6,0.1,1.1-0.6,1.4c-0.6,0.2-1.1,0-1.3-0.7l-0.1-0.4c-1.4,0.7-2.9,1.1-4,1.3c-0.9,0.2-1.6-0.1-1.7-1
		c-0.1-0.9,0.2-1.5,1.2-1.5h0.5c0.3-0.5,0.6-1,0.9-1.5c-0.4,0.1-0.7,0.2-1.1,0.3c-0.8,0.2-1.5-0.1-1.6-1
		C181.1,24.5,181.4,24.1,182.1,24z M183.2,30.2c0.4,0.1,0.6,0.4,0.6,0.9c0,0.6-0.2,1.5-0.3,2.2s-0.6,1-1.4,0.7
		c-0.7-0.2-0.8-0.9-0.6-1.4c0.3-0.7,0.5-1.3,0.7-1.9C182.3,30.3,182.7,30.1,183.2,30.2z M185.7,30.6c0.2,0.6,0.5,1.5,0.6,2.2
		s-0.1,1.2-0.9,1.2c-0.9,0.1-1.2-0.2-1.2-1.1c0-0.7,0-1.5,0-2.1c0-0.5,0.2-0.7,0.7-0.8C185.3,30,185.5,30.2,185.7,30.6z M188.7,32
		c0.2,0.6,0.2,1.2-0.5,1.5s-1.2,0-1.4-0.6c-0.2-0.8-0.5-1.5-0.6-2.1c-0.1-0.5,0-0.8,0.4-0.9c0.4-0.2,0.7-0.1,1,0.3
		C188,30.6,188.4,31.3,188.7,32z"/>
	
		<path fill="#FFFFFF" stroke="#FFFFFF" stroke-width="3.5" stroke-linecap="round" stroke-linejoin="round" stroke-miterlimit="10" d="
		M218.1,25.2v19.9c0,1.3-0.9,2.2-2.5,2.2s-2.5-0.9-2.5-2.2V44h-13.8v1.2c0,1.3-0.9,2.2-2.5,2.2s-2.5-0.9-2.5-2.2v-20
		c0-1.5,0.8-2.3,2.3-2.3h19.2C217.2,22.8,218.1,23.7,218.1,25.2z M213.1,41V26.2c0-0.3-0.2-0.4-0.4-0.4h-12.9
		c-0.3,0-0.4,0.2-0.4,0.5V41H213.1z"/>
	
		<path fill="#FFFFFF" stroke="#FFFFFF" stroke-width="3.5" stroke-linecap="round" stroke-linejoin="round" stroke-miterlimit="10" d="
		M250.8,43c0,0.8-0.4,1.3-1.3,1.3h-9.9v2.1c0,1.6-0.9,2.4-2.5,2.4s-2.5-0.7-2.5-2.4v-2.1h-9.5c-0.8,0-1.3-0.5-1.3-1.3
		s0.5-1.3,1.3-1.3h9.5v-1.1H229c-1.3,0-2-0.7-2-2v-5.2c0-1.3,0.7-2,2-2h5.5v-3c0-0.5,0.1-0.9,0.3-1.3h-7.5c-1.3,0-2-0.7-2-2v-2.5
		c0-1.3,0.7-2,2-2h20.2c1.3,0,2,0.7,2,2V25c0,1.3-0.7,2-2,2h-8.2c0.2,0.2,0.2,0.6,0.3,0.9h9.1c0.8,0,1.2,0.4,1.2,1.2
		c0,0.8-0.4,1.2-1.2,1.2h-9.1v1h6.1c1.3,0,2,0.7,2,2v5.2c0,1.3-0.7,2-2,2h-6v1.1h9.9C250.3,41.7,250.8,42.2,250.8,43z M231.9,22.9
		h-1.7c-0.2,0-0.4,0.2-0.4,0.4v0.9c0,0.2,0.2,0.4,0.4,0.4h1.7V22.9z M231.6,34.8h11.2v-0.6c0-0.2-0.2-0.4-0.4-0.4H232
		c-0.2,0-0.4,0.2-0.4,0.4V34.8z M242.4,38.1c0.2,0,0.4-0.2,0.4-0.4v-0.6h-11.2v0.6c0,0.2,0.2,0.4,0.4,0.4H242.4z M236.2,24.6h2.1
		v-1.7h-2.1V24.6z M242.6,24.6h1.7c0.2,0,0.4-0.2,0.4-0.4v-0.9c0-0.2-0.2-0.4-0.4-0.4h-1.7V24.6z"/>
	
		<path fill="#FFFFFF" stroke="#FFFFFF" stroke-width="3.5" stroke-linecap="round" stroke-linejoin="round" stroke-miterlimit="10" d="
		M265.3,37.9c0.3,0.6,0.2,1.1-0.5,1.7c-2.1,1.8-4.9,3.4-7.7,4.4c-1.4,0.5-2.5,0.1-3-1.4c-0.4-1.5,0.3-2.4,1.7-2.7
		c0.6-0.1,1.2-0.2,1.7-0.4v-9.3h-2c-0.8,0-1.3-0.4-1.3-1.3c0-0.8,0.5-1.3,1.3-1.3h2v-5.5c0-1.5,0.8-2.2,2.3-2.2s2.3,0.7,2.3,2.2v5.5
		h1.6c0.8,0,1.3,0.4,1.3,1.3c0,0.8-0.5,1.3-1.3,1.3h-1.6v7.9l1.6-0.6C264.4,37.3,265,37.4,265.3,37.9z M278.3,47.6
		c-2.6,0.2-4.7,0.2-7.5,0c-4.1-0.2-5-1.1-5-4.7v-9.7c-0.2,0.1-0.4,0.2-0.6,0.2c-0.8,0.3-1.5,0-1.7-0.8s0.2-1.4,1-1.7l1.4-0.5v-6.3
		c0-1.5,0.8-2.1,2.3-2.1s2.3,0.7,2.3,2.1v4.7c0.4-0.1,0.8-0.3,1.2-0.4v-7c0-1.4,0.7-2,2.1-2s2.1,0.6,2.1,2v5.4l1.4-0.6
		c0.6-0.9,1.6-1.4,2.9-1.1s1.9,1.4,1.6,3.4c-0.5,3.2-1.6,6.9-2.8,9.4c-0.3,0.6-0.7,0.8-1.3,0.7s-0.9-0.6-0.7-1.2
		c0.5-2.7,0.7-6,0.7-8.1c0-0.3-0.2-0.4-0.4-0.3c-0.4,0.2-0.9,0.3-1.4,0.5v10.2c0,1.2-0.7,1.8-2.1,1.8s-2.1-0.6-2.1-1.8V31
		c-0.4,0.2-0.8,0.3-1.2,0.4v10.3c0,1.3,0.4,1.7,1.6,1.7c2.3,0.1,3.9,0.1,5.8,0s2.1-0.5,2.2-4.8c0-0.8,0.4-1.2,1-1.2s1,0.3,1.2,1.1
		C283.5,45.4,282.7,47.3,278.3,47.6z"/>
	
		<path fill="#FFFFFF" stroke="#FFFFFF" stroke-width="3.5" stroke-linecap="round" stroke-linejoin="round" stroke-miterlimit="10" d="
		M312,22.4V47c0,1.3-0.8,1.7-2.3,1.7s-2.3-0.4-2.3-1.7v-0.1h-15.9v0.2c0,1.3-0.8,1.7-2.3,1.7s-2.3-0.3-2.3-1.7V22.4c0-1.3,0.7-2,2-2
		H310C311.3,20.4,312,21.1,312,22.4z M307.4,44.4V23.2c0-0.2-0.2-0.4-0.4-0.4h-15.1c-0.2,0-0.4,0.2-0.4,0.4v21.2H307.4z M306.9,31.2
		c0,0.7-0.4,1.1-1.1,1.1H293c-0.7,0-1.1-0.4-1.1-1.1s0.4-1.1,1.1-1.1h4.3V29h-2.6c-1.3,0-1.7-0.4-1.7-1.7v-1.9
		c0-1.3,0.4-1.7,1.7-1.7h9.3c1.3,0,1.7,0.4,1.7,1.7v1.9c0,1.3-0.4,1.7-1.7,1.7h-2.4v1.1h4.3C306.6,30.2,306.9,30.5,306.9,31.2z
		 M306.3,35.1v6.4c0,1.3-0.7,2-2,2h-9.6c-1.3,0-2-0.7-2-2v-6.4c0-1.3,0.7-2,2-2h9.6C305.6,33.1,306.3,33.8,306.3,35.1z M302.9,35.7
		c0-0.2-0.2-0.4-0.4-0.4h-6.2c-0.2,0-0.4,0.2-0.4,0.4V41c0,0.2,0.2,0.4,0.4,0.4h6.2c0.2,0,0.4-0.2,0.4-0.4V35.7z M302.2,37.3v2
		c0,1-0.5,1.3-1.5,1.3h-2.4c-1,0-1.5-0.3-1.5-1.3v-2c0-1,0.5-1.3,1.5-1.3h2.4C301.7,36,302.2,36.3,302.2,37.3z M297.2,27.1h4.3
		c0.2,0,0.3-0.1,0.3-0.3v-0.4c0-0.2-0.1-0.3-0.3-0.3h-4.3c-0.2,0-0.3,0.1-0.3,0.3v0.4C296.9,26.9,297,27.1,297.2,27.1z M300,38
		c0-0.2-0.1-0.3-0.3-0.3h-0.5c-0.2,0-0.3,0.1-0.3,0.3v0.6c0,0.2,0.1,0.3,0.3,0.3h0.5c0.2,0,0.3-0.1,0.3-0.3V38z"/>
</g>
<g>
	<path fill="#072E00" d="M155.8,33.5c-1.4,1-2.8,0.8-3.7-1c-0.2-0.5-0.5-1-0.8-1.5c-5.7,1.4-12.5,2.4-17.9,2.7
		c-2.1,0.2-3.1-0.8-3.1-2.6c0-1.7,0.8-2.6,2.8-2.5c0.6,0,1.2,0,1.9,0.1c1.6-2.4,2.9-5.1,4.2-7.8c1-2,2.5-2.2,4.2-1.5s2.4,2.1,1,4.2
		c-1.2,1.8-3.1,3.6-5.1,5.2c3.5,0,7-0.1,10.5-0.3c-0.7-1-1.3-2-2-2.9c-0.5-0.7-0.4-1.4,0.2-1.9c0.5-0.5,1.3-0.4,2,0
		c2.3,1.5,4.6,3.7,6.5,5.9C157.5,31.1,157.2,32.5,155.8,33.5z M154.6,36.8v9.5c0,1.6-0.9,2.2-2.5,2.2s-2.6-0.6-2.6-2.2v-0.1h-11.4
		v0.1c0,1.6-0.9,2.2-2.5,2.2s-2.6-0.6-2.6-2.2v-9.5c0-1.3,0.7-2,2-2h17.4C153.9,34.8,154.6,35.5,154.6,36.8z M149.6,43.4V38
		c0-0.2-0.2-0.4-0.4-0.4h-10.6c-0.2,0-0.4,0.2-0.4,0.4v5.4H149.6z"/>
	<path fill="#072E00" d="M163.7,31.9c-0.9-1-1.8-2-2.5-2.7c-0.4-0.4-0.6-1-0.2-1.5c0.3-0.5,0.8-0.6,1.5-0.4c1,0.3,2.4,1.1,3.5,1.8
		c1.2,0.8,1.4,1.8,0.5,2.8C165.6,32.9,164.6,32.9,163.7,31.9z M161.5,21.7c-0.4-0.5-0.5-1.1-0.2-1.6s0.8-0.6,1.5-0.4
		c1,0.3,2.2,1,3.3,1.7c1.2,0.8,1.3,1.8,0.5,2.8c-0.8,0.9-1.9,1-2.8-0.1C162.9,23.2,162.1,22.3,161.5,21.7z M167.6,36.7
		c-0.3,3-1,6.8-1.6,9.1c-0.5,1.8-1.6,2.2-3.1,1.6c-1.5-0.6-2-1.8-1.1-3.4c1.1-2,2.5-5,3.5-7.9c0.3-0.7,0.8-1,1.5-0.8
		C167.4,35.5,167.7,36,167.6,36.7z M167.4,34.7c-0.7-0.3-0.9-0.9-0.5-1.6c0.4-0.7,0.7-1.4,1-2.2c0.2-0.5,0.5-0.7,1-0.5
		c0.5,0.1,0.6,0.4,0.6,1c-0.1,0.9-0.3,1.9-0.5,2.7C168.7,34.8,168.1,35.1,167.4,34.7z M167.8,24c0.4-1.2,0.6-2.5,0.8-3.4
		c0.2-1,0.8-1.2,1.7-1c0.8,0.2,1.2,0.7,0.9,1.6c-0.2,0.8-0.8,1.9-1.5,2.7c0.3,0,0.7,0,0.9-0.1l0.4-1c0.3-1,1.1-1.2,1.8-0.9
		c0.8,0.3,1.1,0.9,0.7,1.8c-0.5,1.2-1.6,2.7-2.6,3.8c0.4,0,0.8-0.1,1.2-0.1l-0.1-0.2c-0.2-0.5-0.1-0.8,0.3-1
		c0.4-0.2,0.7-0.1,1.1,0.2c0.4,0.5,0.8,1.1,1.2,1.9c0.3,0.6,0.1,1.1-0.5,1.4s-1.2,0.1-1.4-0.6c0-0.1,0-0.1-0.1-0.2
		c-1.4,0.7-2.9,1.2-4,1.3c-0.9,0.2-1.6-0.2-1.7-1c-0.1-0.9,0.2-1.5,1.2-1.5c0.2,0,0.4,0,0.6,0c0.3-0.5,0.6-1,0.9-1.6
		c-0.4,0.1-0.9,0.2-1.3,0.3c-0.8,0.2-1.5-0.1-1.6-1C166.8,24.6,167,24.1,167.8,24z M188.2,43.4c-0.2,1.2-0.4,2.1-0.7,3
		c-0.8,2.8-4.3,3.1-9.1,1.1c-0.7-0.3-0.9-0.8-0.7-1.4c0.2-0.6,0.6-0.8,1.3-0.7c3.5,0.7,4.2,0.5,4.4-0.2c0.1-0.5,0.2-0.9,0.3-1.4
		c0-0.2-0.1-0.4-0.3-0.4H171c-1.9,0-2.9-0.5-2.5-2.1c0.3-1,0.5-1.6,0.8-2.3c0.4-0.9,1-1.2,2.3-1.2h10.8c0.2,0,0.3-0.1,0.3-0.3V37
		c0-0.2-0.1-0.3-0.3-0.3h-12.3c-0.7,0-1.2-0.4-1.2-1.2c0-0.7,0.4-1.2,1.2-1.2H185c1.3,0,2,0.7,2,2V38c0,1.3-0.7,2-2,2h-11.9
		c-0.2,0-0.3,0.1-0.3,0.3c-0.1,0.2-0.1,0.3-0.1,0.5c-0.1,0.2,0.1,0.3,0.3,0.3h13.3C187.8,41.1,188.5,42,188.2,43.4z M171.4,30.8
		c0.2,0.6,0.5,1.4,0.6,2.1c0.1,0.7-0.1,1.2-0.9,1.2c-0.9,0.1-1.2-0.2-1.2-1.1c0-0.7,0-1.4,0-2.1c0-0.5,0.2-0.7,0.7-0.8
		S171.2,30.3,171.4,30.8z M172.4,32.6c-0.2-0.7-0.3-1.3-0.5-1.8c-0.1-0.5,0-0.8,0.4-0.9s0.7-0.1,1,0.3c0.4,0.5,0.8,1.1,1.1,1.7
		s0.2,1.2-0.5,1.5C173.1,33.5,172.5,33.2,172.4,32.6z M173.8,22.7c0-0.6,0.3-0.9,1-0.9h1.4v-1c0-0.9,0.6-1.5,1.7-1.5
		c1.1,0,1.7,0.6,1.7,1.5v1h1.3c0.6,0,1,0.3,1,0.9s-0.3,0.9-1,0.9h-6.1C174.2,23.7,173.8,23.3,173.8,22.7z M175.5,26
		c-0.6,0-0.9-0.3-0.9-0.9c0-0.5,0.3-0.9,0.9-0.9h4.6c0.6,0,0.9,0.3,0.9,0.9c0,0.5-0.3,0.9-0.9,0.9H175.5z M174.6,27.4
		c0-0.5,0.3-0.9,0.9-0.9h4.6c0.6,0,0.9,0.3,0.9,0.9c0,0.5-0.3,0.9-0.9,0.9h-4.6C175,28.2,174.6,27.9,174.6,27.4z M174.6,30.5
		c0-1.1,0.6-1.7,1.7-1.7h3.2c1.1,0,1.7,0.6,1.7,1.7v1.7c0,1.1-0.6,1.7-1.7,1.7h-3.2c-1.1,0-1.7-0.6-1.7-1.7V30.5z M177.2,31.9
		c0,0.2,0.1,0.3,0.3,0.3h0.9c0.2,0,0.3-0.1,0.3-0.3v-1c0-0.2-0.1-0.3-0.3-0.3h-0.9c-0.2,0-0.3,0.1-0.3,0.3V31.9z M182.1,24
		c0.4-1.2,0.7-2.4,0.9-3.4c0.2-0.9,0.8-1.2,1.7-1c0.8,0.2,1.1,0.8,0.8,1.6c-0.2,0.8-0.8,1.9-1.4,2.7c0.3,0,0.6,0,0.9-0.1l0.5-1
		c0.4-1,1.1-1.2,1.9-0.8c0.7,0.3,1,1,0.6,1.8c-0.5,1.2-1.7,2.5-2.7,3.5c0.4,0,0.9-0.1,1.3-0.1v-0.1c-0.2-0.5,0-0.8,0.3-1
		s0.7-0.1,1,0.3c0.4,0.5,0.8,1.2,1.1,1.9c0.2,0.6,0.1,1.1-0.6,1.4c-0.6,0.2-1.1,0-1.3-0.7l-0.1-0.4c-1.4,0.7-2.9,1.1-4,1.3
		c-0.9,0.2-1.6-0.1-1.7-1c-0.1-0.9,0.2-1.5,1.2-1.5h0.5c0.3-0.5,0.6-1,0.9-1.5c-0.4,0.1-0.7,0.2-1.1,0.3c-0.8,0.2-1.5-0.1-1.6-1
		C181.1,24.5,181.4,24.1,182.1,24z M183.2,30.2c0.4,0.1,0.6,0.4,0.6,0.9c0,0.6-0.2,1.5-0.3,2.2s-0.6,1-1.4,0.7
		c-0.7-0.2-0.8-0.9-0.6-1.4c0.3-0.7,0.5-1.3,0.7-1.9C182.3,30.3,182.7,30.1,183.2,30.2z M185.7,30.6c0.2,0.6,0.5,1.5,0.6,2.2
		s-0.1,1.2-0.9,1.2c-0.9,0.1-1.2-0.2-1.2-1.1c0-0.7,0-1.5,0-2.1c0-0.5,0.2-0.7,0.7-0.8C185.3,30,185.5,30.2,185.7,30.6z M188.7,32
		c0.2,0.6,0.2,1.2-0.5,1.5s-1.2,0-1.4-0.6c-0.2-0.8-0.5-1.5-0.6-2.1c-0.1-0.5,0-0.8,0.4-0.9c0.4-0.2,0.7-0.1,1,0.3
		C188,30.6,188.4,31.3,188.7,32z"/>
	<path fill="#072E00" d="M218.1,25.2v19.9c0,1.3-0.9,2.2-2.5,2.2s-2.5-0.9-2.5-2.2V44h-13.8v1.2c0,1.3-0.9,2.2-2.5,2.2
		s-2.5-0.9-2.5-2.2v-20c0-1.5,0.8-2.3,2.3-2.3h19.2C217.2,22.8,218.1,23.7,218.1,25.2z M213.1,41V26.2c0-0.3-0.2-0.4-0.4-0.4h-12.9
		c-0.3,0-0.4,0.2-0.4,0.5V41H213.1z"/>
	<path fill="#072E00" d="M250.8,43c0,0.8-0.4,1.3-1.3,1.3h-9.9v2.1c0,1.6-0.9,2.4-2.5,2.4s-2.5-0.7-2.5-2.4v-2.1h-9.5
		c-0.8,0-1.3-0.5-1.3-1.3s0.5-1.3,1.3-1.3h9.5v-1.1H229c-1.3,0-2-0.7-2-2v-5.2c0-1.3,0.7-2,2-2h5.5v-3c0-0.5,0.1-0.9,0.3-1.3h-7.5
		c-1.3,0-2-0.7-2-2v-2.5c0-1.3,0.7-2,2-2h20.2c1.3,0,2,0.7,2,2V25c0,1.3-0.7,2-2,2h-8.2c0.2,0.2,0.2,0.6,0.3,0.9h9.1
		c0.8,0,1.2,0.4,1.2,1.2c0,0.8-0.4,1.2-1.2,1.2h-9.1v1h6.1c1.3,0,2,0.7,2,2v5.2c0,1.3-0.7,2-2,2h-6v1.1h9.9
		C250.3,41.7,250.8,42.2,250.8,43z M231.9,22.9h-1.7c-0.2,0-0.4,0.2-0.4,0.4v0.9c0,0.2,0.2,0.4,0.4,0.4h1.7V22.9z M231.6,34.8h11.2
		v-0.6c0-0.2-0.2-0.4-0.4-0.4H232c-0.2,0-0.4,0.2-0.4,0.4V34.8z M242.4,38.1c0.2,0,0.4-0.2,0.4-0.4v-0.6h-11.2v0.6
		c0,0.2,0.2,0.4,0.4,0.4H242.4z M236.2,24.6h2.1v-1.7h-2.1V24.6z M242.6,24.6h1.7c0.2,0,0.4-0.2,0.4-0.4v-0.9c0-0.2-0.2-0.4-0.4-0.4
		h-1.7V24.6z"/>
	<path fill="#072E00" d="M265.3,37.9c0.3,0.6,0.2,1.1-0.5,1.7c-2.1,1.8-4.9,3.4-7.7,4.4c-1.4,0.5-2.5,0.1-3-1.4
		c-0.4-1.5,0.3-2.4,1.7-2.7c0.6-0.1,1.2-0.2,1.7-0.4v-9.3h-2c-0.8,0-1.3-0.4-1.3-1.3c0-0.8,0.5-1.3,1.3-1.3h2v-5.5
		c0-1.5,0.8-2.2,2.3-2.2s2.3,0.7,2.3,2.2v5.5h1.6c0.8,0,1.3,0.4,1.3,1.3c0,0.8-0.5,1.3-1.3,1.3h-1.6v7.9l1.6-0.6
		C264.4,37.3,265,37.4,265.3,37.9z M278.3,47.6c-2.6,0.2-4.7,0.2-7.5,0c-4.1-0.2-5-1.1-5-4.7v-9.7c-0.2,0.1-0.4,0.2-0.6,0.2
		c-0.8,0.3-1.5,0-1.7-0.8s0.2-1.4,1-1.7l1.4-0.5v-6.3c0-1.5,0.8-2.1,2.3-2.1s2.3,0.7,2.3,2.1v4.7c0.4-0.1,0.8-0.3,1.2-0.4v-7
		c0-1.4,0.7-2,2.1-2s2.1,0.6,2.1,2v5.4l1.4-0.6c0.6-0.9,1.6-1.4,2.9-1.1s1.9,1.4,1.6,3.4c-0.5,3.2-1.6,6.9-2.8,9.4
		c-0.3,0.6-0.7,0.8-1.3,0.7s-0.9-0.6-0.7-1.2c0.5-2.7,0.7-6,0.7-8.1c0-0.3-0.2-0.4-0.4-0.3c-0.4,0.2-0.9,0.3-1.4,0.5v10.2
		c0,1.2-0.7,1.8-2.1,1.8s-2.1-0.6-2.1-1.8V31c-0.4,0.2-0.8,0.3-1.2,0.4v10.3c0,1.3,0.4,1.7,1.6,1.7c2.3,0.1,3.9,0.1,5.8,0
		s2.1-0.5,2.2-4.8c0-0.8,0.4-1.2,1-1.2s1,0.3,1.2,1.1C283.5,45.4,282.7,47.3,278.3,47.6z"/>
	<path fill="#072E00" d="M312,22.4V47c0,1.3-0.8,1.7-2.3,1.7s-2.3-0.4-2.3-1.7v-0.1h-15.9v0.2c0,1.3-0.8,1.7-2.3,1.7
		s-2.3-0.3-2.3-1.7V22.4c0-1.3,0.7-2,2-2H310C311.3,20.4,312,21.1,312,22.4z M307.4,44.4V23.2c0-0.2-0.2-0.4-0.4-0.4h-15.1
		c-0.2,0-0.4,0.2-0.4,0.4v21.2H307.4z M306.9,31.2c0,0.7-0.4,1.1-1.1,1.1H293c-0.7,0-1.1-0.4-1.1-1.1s0.4-1.1,1.1-1.1h4.3V29h-2.6
		c-1.3,0-1.7-0.4-1.7-1.7v-1.9c0-1.3,0.4-1.7,1.7-1.7h9.3c1.3,0,1.7,0.4,1.7,1.7v1.9c0,1.3-0.4,1.7-1.7,1.7h-2.4v1.1h4.3
		C306.6,30.2,306.9,30.5,306.9,31.2z M306.3,35.1v6.4c0,1.3-0.7,2-2,2h-9.6c-1.3,0-2-0.7-2-2v-6.4c0-1.3,0.7-2,2-2h9.6
		C305.6,33.1,306.3,33.8,306.3,35.1z M302.9,35.7c0-0.2-0.2-0.4-0.4-0.4h-6.2c-0.2,0-0.4,0.2-0.4,0.4V41c0,0.2,0.2,0.4,0.4,0.4h6.2
		c0.2,0,0.4-0.2,0.4-0.4V35.7z M302.2,37.3v2c0,1-0.5,1.3-1.5,1.3h-2.4c-1,0-1.5-0.3-1.5-1.3v-2c0-1,0.5-1.3,1.5-1.3h2.4
		C301.7,36,302.2,36.3,302.2,37.3z M297.2,27.1h4.3c0.2,0,0.3-0.1,0.3-0.3v-0.4c0-0.2-0.1-0.3-0.3-0.3h-4.3c-0.2,0-0.3,0.1-0.3,0.3
		v0.4C296.9,26.9,297,27.1,297.2,27.1z M300,38c0-0.2-0.1-0.3-0.3-0.3h-0.5c-0.2,0-0.3,0.1-0.3,0.3v0.6c0,0.2,0.1,0.3,0.3,0.3h0.5
		c0.2,0,0.3-0.1,0.3-0.3V38z"/>
</g>
<g>
	
		<path fill="#63CF9C" stroke="#63CF9C" stroke-width="3.5" stroke-linecap="round" stroke-linejoin="round" stroke-miterlimit="10" d="
		M132.6,78.7c0-1.2,0.3-1.7,1.5-2.7c2.5-2,4.5-3.8,6.2-5.9s2.9-4.5,2.9-6.7c0-2.6-1.7-4-3.7-4.1c-1.6-0.1-3.1,0.8-4.1,1.7
		c-0.7,0.8-1.7,0.8-2.4,0c-0.6-0.8-0.5-1.9,0.3-2.6c1.3-1.3,3.6-2.5,6.7-2.5c4.2,0.1,7.5,2.3,7.5,7.1c0,3.4-2.5,6.9-4,8.5
		c-1.7,1.9-4.3,4.2-5.9,5.5c-0.3,0.2-0.2,0.4,0.2,0.4h8.8c1,0,1.6,0.6,1.6,1.6c0,1.1-0.6,1.7-1.6,1.7h-11.8
		C133.3,80.7,132.6,79.9,132.6,78.7z"/>
	
		<path fill="#63CF9C" stroke="#63CF9C" stroke-width="3.5" stroke-linecap="round" stroke-linejoin="round" stroke-miterlimit="10" d="
		M151.7,68.3c0-7.4,3-12.5,9-12.5c5.8,0,8.6,4.9,8.6,12.5s-2.3,13.1-8.7,13.1C154.2,81.4,151.7,75.8,151.7,68.3z M164.6,68.3
		c0-5.7-0.9-9.4-4-9.3c-3,0-4.2,3.6-4.2,9.3c0,6,1.1,9.9,4.2,9.9C163.8,78.2,164.7,74.2,164.6,68.3z"/>
	
		<path fill="#63CF9C" stroke="#63CF9C" stroke-width="3.5" stroke-linecap="round" stroke-linejoin="round" stroke-miterlimit="10" d="
		M172.6,78.7c0-1.2,0.3-1.7,1.5-2.7c2.5-2,4.5-3.8,6.2-5.9s2.9-4.5,2.9-6.7c0-2.6-1.7-4-3.7-4.1c-1.6-0.1-3.1,0.8-4.1,1.7
		c-0.7,0.8-1.7,0.8-2.4,0c-0.6-0.8-0.5-1.9,0.3-2.6c1.3-1.3,3.6-2.5,6.7-2.5c4.2,0.1,7.5,2.3,7.5,7.1c0,3.4-2.5,6.9-4,8.5
		c-1.7,1.9-4.3,4.2-5.9,5.5c-0.3,0.2-0.2,0.4,0.2,0.4h8.8c1,0,1.6,0.6,1.6,1.6c0,1.1-0.6,1.7-1.6,1.7h-11.8
		C173.3,80.7,172.6,79.9,172.6,78.7z"/>
	
		<path fill="#63CF9C" stroke="#63CF9C" stroke-width="3.5" stroke-linecap="round" stroke-linejoin="round" stroke-miterlimit="10" d="
		M191.7,68.3c0-7.4,3-12.5,9-12.5c5.8,0,8.6,4.9,8.6,12.5s-2.3,13.1-8.7,13.1C194.2,81.4,191.7,75.8,191.7,68.3z M204.6,68.3
		c0-5.7-0.9-9.4-4-9.3c-3,0-4.2,3.6-4.2,9.3c0,6,1.1,9.9,4.2,9.9C203.8,78.2,204.7,74.2,204.6,68.3z"/>
	
		<path fill="#63CF9C" stroke="#63CF9C" stroke-width="3.5" stroke-linecap="round" stroke-linejoin="round" stroke-miterlimit="10" d="
		M216.9,74.5c-0.1-0.1-0.2-0.1-0.2-0.2v5.1c0,1-0.5,1.5-1.4,1.5s-1.4-0.6-1.4-1.5v-22c0-1,0.5-1.6,1.4-1.6c0.6,0,1.1,0.3,1.3,0.8
		h2.4c0.5-0.6,1.3-0.8,2.1-0.4c0.8,0.4,1.1,1.3,0.7,2.6c-0.8,2.5-1.6,4.5-2.5,6c-0.1,0.2-0.1,0.3,0.1,0.5c1.6,1.8,2.8,4.3,2.9,6.7
		C222.3,75.5,219.7,76.3,216.9,74.5z M216.7,73.1c0.2-0.2,0.4-0.2,0.8-0.2c1.7,0.2,2-0.1,2-1.6c0-1.2-0.4-3.3-1.5-5.3
		c-0.4-0.7-0.4-1.2-0.2-1.9c0.6-2,1-3.5,1.2-5.2c0-0.2-0.1-0.4-0.3-0.4h-2V73.1z M235.5,61.4c0,0.6-0.3,1-0.9,1h-7
		c0,1.3-0.1,2.5-0.2,3.6h5.2c1,0,1.5,0.6,1.5,1.6c-0.1,4-0.3,7.6-0.6,9.8c-0.4,3.3-3.4,4-7.3,1.8c-0.4-0.2-0.5-0.6-0.4-1.1
		c0.1-0.4,0.5-0.6,1-0.5c3,0.5,3.4,0.3,3.6-1.1c0.2-1.9,0.4-4.9,0.4-8.3c0-0.2-0.1-0.3-0.3-0.3h-3.3c-0.8,6.3-3,10.2-7.4,12.9
		c-0.4,0.3-0.8,0.2-1.1-0.2c-0.3-0.4-0.2-0.8,0.2-1.2c3.8-3.7,5.1-7.9,5.2-17H222c-0.6,0-0.9-0.4-0.9-1s0.3-1,0.9-1h4.6V57
		c0-1,0.6-1.6,1.6-1.6c1.1,0,1.6,0.6,1.6,1.6v3.5h4.8C235.2,60.5,235.5,60.8,235.5,61.4z"/>
	
		<path fill="#63CF9C" stroke="#63CF9C" stroke-width="3.5" stroke-linecap="round" stroke-linejoin="round" stroke-miterlimit="10" d="
		M245.2,65.5c0,7.4-1.1,12-4.6,15.3c-0.4,0.4-0.8,0.4-1.1,0s-0.4-0.7-0.1-1.2c1.6-2.5,2.2-4.7,2.5-8.3c-0.5,0.6-1,1.1-1.6,1.5
		c-0.8,0.7-1.6,0.5-2.1-0.4s-0.2-1.7,0.8-2.1s2-0.9,3-1.6c0-0.9,0-1.8,0-2.8c-0.2,0.4-0.5,0.6-0.9,0.8c-0.9,0.4-1.5-0.1-1.7-1.2
		c-0.2-1.5-0.6-2.8-1-3.9c-0.2-0.5,0-0.9,0.4-1c0.4-0.2,0.7-0.1,1,0.4c0.8,1,1.5,2.3,2.1,3.7c0.1,0.1,0.1,0.2,0.1,0.3v-5.2
		c0-1,0.5-1.6,1.5-1.6h6.8v-1.3c0-1,0.6-1.7,1.7-1.7c1.1,0,1.7,0.6,1.7,1.7V58h6.7c0.6,0,1,0.4,1,1c0,0.7-0.4,1-1,1h-14.9
		c-0.2,0-0.3,0.1-0.3,0.3V65.5z M261.2,79.5c-0.3,1.1-1.1,1.6-2.3,1.3c-2.3-0.6-4.2-1.5-5.9-2.7c-2.4,1.6-5.2,2.5-8.6,2.9
		c-0.5,0.1-0.9-0.1-1-0.7c-0.1-0.4,0.1-0.8,0.7-0.9c2.9-0.8,5.1-1.8,6.9-3c-1.2-1.4-2.2-3-2.8-4.9H247c-0.6,0-0.9-0.4-0.9-1
		s0.3-1,0.9-1h9.9c1.3,0,2.2,1,1.6,2.3c-0.9,1.7-1.9,3.1-3.1,4.3c1.3,0.5,2.7,0.9,4.3,1.1C261.1,77.5,261.5,78.3,261.2,79.5z
		 M253.7,65.7v-2.3c0-0.2-0.1-0.3-0.3-0.3h-2.3c-0.2,0-0.3,0.1-0.3,0.3c-0.1,2-0.7,4.6-4.2,5.9c-0.5,0.2-0.8,0-1-0.4
		s-0.1-0.8,0.3-1.1c1.6-1.2,1.9-2.4,2-5c0.1-1.1,0.6-1.7,1.5-1.7h5.9c1,0,1.5,0.6,1.5,1.6v1.8c0,1.1,0.1,1.3,1.1,1.4
		c0.4,0,0.8,0,1.2-0.2c0.7-0.3,1.3-0.3,1.6,0.5c0.4,0.8,0.2,1.4-0.5,1.8s-1.7,0.6-3.1,0.6C254.3,68.5,253.7,68.1,253.7,65.7z
		 M252.9,74.8c0.8-0.9,1.5-1.9,2.1-3c0.1-0.2,0-0.4-0.2-0.4h-4.9C250.6,72.9,251.6,73.9,252.9,74.8z"/>
	
		<path fill="#63CF9C" stroke="#63CF9C" stroke-width="3.5" stroke-linecap="round" stroke-linejoin="round" stroke-miterlimit="10" d="
		M286.9,70.9c0,0.7-0.4,1-1,1H282c-0.5,1.4-1.2,2.6-2,3.7c1.6,0.4,3.2,1,4.6,1.5c1.2,0.5,1.5,1.4,1.1,2.5s-1.4,1.4-2.6,0.8
		c-1.7-0.9-3.6-1.8-5.6-2.6c-3,2-7,2.9-11.9,3c-0.6,0-1-0.3-1-0.8c0-0.6,0.2-0.9,0.9-0.9c3.9-0.4,6.8-1.2,8.9-2.5
		c-1.1-0.4-2.2-0.7-3.3-1c-0.3,0.3-0.5,0.6-0.7,0.9c-0.7,0.7-1.4,0.8-2.1,0.3c-0.7-0.6-0.7-1.3-0.1-2.1c0.6-0.9,1.3-1.8,1.9-2.8
		h-4.7c-0.6,0-1-0.4-1-1s0.3-1,1-1h6c0.3-0.6,0.7-1.1,1-1.6c0.1-0.1,0.2-0.3,0.3-0.4H268c-1,0-1.5-0.6-1.5-1.6v-4.1
		c0-1,0.5-1.6,1.5-1.6h3.6v-1.9h-5.7c-0.6,0-1-0.4-1-1c0-0.7,0.3-1,1-1h19.6c0.6,0,1,0.4,1,1c0,0.7-0.3,1-1,1h-5.7v1.9h3.6
		c1,0,1.5,0.6,1.5,1.6v4.1c0,1-0.5,1.6-1.5,1.6H275c0.5,0.5,0.6,1.2,0.1,2l0,0h10.8C286.5,69.8,286.9,70.2,286.9,70.9z M271.7,62.4
		h-1.9c-0.2,0-0.3,0.1-0.3,0.3v2.8c0,0.2,0.1,0.3,0.3,0.3h1.9V62.4z M278.4,71.9h-4.6c-0.5,0.7-1,1.5-1.5,2.2
		c1.4,0.1,2.9,0.4,4.3,0.7C277.3,74,277.9,73.1,278.4,71.9z M274.5,60.5h2.2v-1.9h-2.2V60.5z M274.5,65.9h2.2v-3.5h-2.2V65.9z
		 M279.5,65.9h1.9c0.2,0,0.3-0.1,0.3-0.3v-2.8c0-0.2-0.1-0.3-0.3-0.3h-1.9V65.9z"/>
	
		<path fill="#63CF9C" stroke="#63CF9C" stroke-width="3.5" stroke-linecap="round" stroke-linejoin="round" stroke-miterlimit="10" d="
		M297.2,78c0,2.1-1.7,2.7-4,1.7c-0.4-0.2-0.5-0.5-0.4-0.9s0.3-0.5,0.7-0.4c1.4,0.2,1.5,0.1,1.5-0.8v-1.8h-1.9c-0.3,2-1,3.4-2.1,4.6
		c-0.3,0.4-0.6,0.4-1,0.1c-0.3-0.2-0.4-0.6-0.2-1c0.9-1.7,1.2-3.4,1.2-6.9v-3.4c0-1,0.5-1.5,1.4-1.5h3.1c0.9,0,1.4,0.6,1.4,1.5V78
		H297.2z M290.3,58.2c0-0.5,0.3-0.8,0.8-0.8h8.5v-0.7c0-1,0.6-1.6,1.7-1.6s1.7,0.6,1.7,1.6v0.7h8.5c0.5,0,0.8,0.3,0.8,0.8
		c0,0.6-0.3,0.9-0.8,0.9h-15.4v0.4c0,0.5,0.3,0.7,1.1,0.7c2.3,0.1,6,0.1,8.4-0.1c1.6-0.1,2.2-0.2,2.9-0.5c0.6-0.3,1.1-0.2,1.4,0.3
		c0.3,0.6,0.3,1.2-0.4,1.5c-0.9,0.5-1.7,0.6-3.7,0.6c-2.4,0.1-5.9,0.1-8.6,0.1c-3.2-0.1-4-0.3-4-2.3v-0.7h-2
		C290.6,59.1,290.3,58.8,290.3,58.2z M308.2,67h-13.8c-0.9,0-1.4-0.5-1.4-1.5v-1.2c0-1,0.5-1.5,1.4-1.5h13.8c0.9,0,1.4,0.6,1.4,1.5
		v1.2C309.7,66.5,309.2,67,308.2,67z M295.1,74.2v-1.6h-1.6v0.1c0,0.6,0,1-0.1,1.5H295.1z M293.5,69.7V71h1.6v-1.3
		c0-0.2-0.1-0.3-0.3-0.3h-1.1C293.6,69.4,293.5,69.5,293.5,69.7z M306.6,64.6c0-0.2-0.1-0.3-0.3-0.3h-10.1c-0.2,0-0.3,0.1-0.3,0.3
		v0.5c0,0.2,0.1,0.3,0.3,0.3h10.1c0.2,0,0.3-0.1,0.3-0.3V64.6z M300.5,78.5c-0.7,0.9-1.7,1.8-2.6,2.3c-0.3,0.2-0.7,0.2-0.8-0.1
		c-0.2-0.3-0.2-0.6,0.2-0.9c0.7-0.7,1.3-1.6,1.8-2.5c0.3-0.6,0.9-0.7,1.4-0.4C300.9,77.3,301,77.9,300.5,78.5z M302.5,67.7
		c0.9,0,1.4,0.6,1.4,1.5v5.9c0,1-0.5,1.6-1.5,1.6h-3c-1,0-1.5-0.6-1.5-1.6v-5.9c0-1,0.5-1.5,1.4-1.5H302.5z M300,69.5v0.7h1.8v-0.7
		c0-0.2-0.1-0.3-0.3-0.3h-1.3C300.1,69.2,300,69.4,300,69.5z M301.8,71.6H300v0.9h1.8V71.6z M301.8,74.9V74H300v0.9
		c0,0.2,0.1,0.3,0.3,0.3h1.3C301.7,75.2,301.8,75.1,301.8,74.9z M311,80.6c-2.1,0-2.6-0.4-2.6-2.4v-1.7c-0.2,0-0.4-0.2-0.6-0.4
		l-0.5-0.6c-0.4,2.4-1.4,4.1-3,5.2c-0.4,0.3-0.7,0.3-0.9-0.1c-0.2-0.2-0.2-0.5,0-0.8c-0.3,0.1-0.5-0.1-0.8-0.4l-1.1-1.5
		c-0.2-0.3-0.2-0.6,0-0.9s0.5-0.3,0.8-0.1c0.5,0.3,1.1,0.7,1.6,1.2c0.2,0.2,0.3,0.4,0.3,0.6c0.8-1.4,1.1-2.9,1.1-5.3
		c-0.2-0.2-0.5-0.4-0.7-0.7c-0.4-0.4-0.4-0.7-0.2-1c0.2-0.4,0.5-0.4,0.9-0.2v-2.2H305c-0.5,0-0.8-0.3-0.8-0.9c0-0.5,0.3-0.9,0.8-0.9
		h4.2c0.9,0,1.4,0.6,1.4,1.5v8.4c0,0.6,0.1,0.7,0.4,0.7c0.4,0,0.4-0.2,0.4-3.2c0-0.5,0.3-0.7,0.6-0.7c0.3,0,0.5,0.2,0.6,0.6
		C313.2,79.7,312.8,80.5,311,80.6z M308.3,73.8v-4.1c0-0.2-0.1-0.3-0.3-0.3h-0.6v3V73C307.8,73.3,308,73.5,308.3,73.8z"/>
</g>
<g>
	<path fill="#FFFFFF" d="M132.6,78.7c0-1.2,0.3-1.7,1.5-2.7c2.5-2,4.5-3.8,6.2-5.9s2.9-4.5,2.9-6.7c0-2.6-1.7-4-3.7-4.1
		c-1.6-0.1-3.1,0.8-4.1,1.7c-0.7,0.8-1.7,0.8-2.4,0c-0.6-0.8-0.5-1.9,0.3-2.6c1.3-1.3,3.6-2.5,6.7-2.5c4.2,0.1,7.5,2.3,7.5,7.1
		c0,3.4-2.5,6.9-4,8.5c-1.7,1.9-4.3,4.2-5.9,5.5c-0.3,0.2-0.2,0.4,0.2,0.4h8.8c1,0,1.6,0.6,1.6,1.6c0,1.1-0.6,1.7-1.6,1.7h-11.8
		C133.3,80.7,132.6,79.9,132.6,78.7z"/>
	<path fill="#FFFFFF" d="M151.7,68.3c0-7.4,3-12.5,9-12.5c5.8,0,8.6,4.9,8.6,12.5s-2.3,13.1-8.7,13.1
		C154.2,81.4,151.7,75.8,151.7,68.3z M164.6,68.3c0-5.7-0.9-9.4-4-9.3c-3,0-4.2,3.6-4.2,9.3c0,6,1.1,9.9,4.2,9.9
		C163.8,78.2,164.7,74.2,164.6,68.3z"/>
	<path fill="#FFFFFF" d="M172.6,78.7c0-1.2,0.3-1.7,1.5-2.7c2.5-2,4.5-3.8,6.2-5.9s2.9-4.5,2.9-6.7c0-2.6-1.7-4-3.7-4.1
		c-1.6-0.1-3.1,0.8-4.1,1.7c-0.7,0.8-1.7,0.8-2.4,0c-0.6-0.8-0.5-1.9,0.3-2.6c1.3-1.3,3.6-2.5,6.7-2.5c4.2,0.1,7.5,2.3,7.5,7.1
		c0,3.4-2.5,6.9-4,8.5c-1.7,1.9-4.3,4.2-5.9,5.5c-0.3,0.2-0.2,0.4,0.2,0.4h8.8c1,0,1.6,0.6,1.6,1.6c0,1.1-0.6,1.7-1.6,1.7h-11.8
		C173.3,80.7,172.6,79.9,172.6,78.7z"/>
	<path fill="#FFFFFF" d="M191.7,68.3c0-7.4,3-12.5,9-12.5c5.8,0,8.6,4.9,8.6,12.5s-2.3,13.1-8.7,13.1
		C194.2,81.4,191.7,75.8,191.7,68.3z M204.6,68.3c0-5.7-0.9-9.4-4-9.3c-3,0-4.2,3.6-4.2,9.3c0,6,1.1,9.9,4.2,9.9
		C203.8,78.2,204.7,74.2,204.6,68.3z"/>
	<path fill="#FFFFFF" d="M216.9,74.5c-0.1-0.1-0.2-0.1-0.2-0.2v5.1c0,1-0.5,1.5-1.4,1.5s-1.4-0.6-1.4-1.5v-22c0-1,0.5-1.6,1.4-1.6
		c0.6,0,1.1,0.3,1.3,0.8h2.4c0.5-0.6,1.3-0.8,2.1-0.4c0.8,0.4,1.1,1.3,0.7,2.6c-0.8,2.5-1.6,4.5-2.5,6c-0.1,0.2-0.1,0.3,0.1,0.5
		c1.6,1.8,2.8,4.3,2.9,6.7C222.3,75.5,219.7,76.3,216.9,74.5z M216.7,73.1c0.2-0.2,0.4-0.2,0.8-0.2c1.7,0.2,2-0.1,2-1.6
		c0-1.2-0.4-3.3-1.5-5.3c-0.4-0.7-0.4-1.2-0.2-1.9c0.6-2,1-3.5,1.2-5.2c0-0.2-0.1-0.4-0.3-0.4h-2V73.1z M235.5,61.4
		c0,0.6-0.3,1-0.9,1h-7c0,1.3-0.1,2.5-0.2,3.6h5.2c1,0,1.5,0.6,1.5,1.6c-0.1,4-0.3,7.6-0.6,9.8c-0.4,3.3-3.4,4-7.3,1.8
		c-0.4-0.2-0.5-0.6-0.4-1.1c0.1-0.4,0.5-0.6,1-0.5c3,0.5,3.4,0.3,3.6-1.1c0.2-1.9,0.4-4.9,0.4-8.3c0-0.2-0.1-0.3-0.3-0.3h-3.3
		c-0.8,6.3-3,10.2-7.4,12.9c-0.4,0.3-0.8,0.2-1.1-0.2c-0.3-0.4-0.2-0.8,0.2-1.2c3.8-3.7,5.1-7.9,5.2-17H222c-0.6,0-0.9-0.4-0.9-1
		s0.3-1,0.9-1h4.6V57c0-1,0.6-1.6,1.6-1.6c1.1,0,1.6,0.6,1.6,1.6v3.5h4.8C235.2,60.5,235.5,60.8,235.5,61.4z"/>
	<path fill="#FFFFFF" d="M245.2,65.5c0,7.4-1.1,12-4.6,15.3c-0.4,0.4-0.8,0.4-1.1,0s-0.4-0.7-0.1-1.2c1.6-2.5,2.2-4.7,2.5-8.3
		c-0.5,0.6-1,1.1-1.6,1.5c-0.8,0.7-1.6,0.5-2.1-0.4s-0.2-1.7,0.8-2.1s2-0.9,3-1.6c0-0.9,0-1.8,0-2.8c-0.2,0.4-0.5,0.6-0.9,0.8
		c-0.9,0.4-1.5-0.1-1.7-1.2c-0.2-1.5-0.6-2.8-1-3.9c-0.2-0.5,0-0.9,0.4-1c0.4-0.2,0.7-0.1,1,0.4c0.8,1,1.5,2.3,2.1,3.7
		c0.1,0.1,0.1,0.2,0.1,0.3v-5.2c0-1,0.5-1.6,1.5-1.6h6.8v-1.3c0-1,0.6-1.7,1.7-1.7c1.1,0,1.7,0.6,1.7,1.7V58h6.7c0.6,0,1,0.4,1,1
		c0,0.7-0.4,1-1,1h-14.9c-0.2,0-0.3,0.1-0.3,0.3V65.5z M261.2,79.5c-0.3,1.1-1.1,1.6-2.3,1.3c-2.3-0.6-4.2-1.5-5.9-2.7
		c-2.4,1.6-5.2,2.5-8.6,2.9c-0.5,0.1-0.9-0.1-1-0.7c-0.1-0.4,0.1-0.8,0.7-0.9c2.9-0.8,5.1-1.8,6.9-3c-1.2-1.4-2.2-3-2.8-4.9H247
		c-0.6,0-0.9-0.4-0.9-1s0.3-1,0.9-1h9.9c1.3,0,2.2,1,1.6,2.3c-0.9,1.7-1.9,3.1-3.1,4.3c1.3,0.5,2.7,0.9,4.3,1.1
		C261.1,77.5,261.5,78.3,261.2,79.5z M253.7,65.7v-2.3c0-0.2-0.1-0.3-0.3-0.3h-2.3c-0.2,0-0.3,0.1-0.3,0.3c-0.1,2-0.7,4.6-4.2,5.9
		c-0.5,0.2-0.8,0-1-0.4s-0.1-0.8,0.3-1.1c1.6-1.2,1.9-2.4,2-5c0.1-1.1,0.6-1.7,1.5-1.7h5.9c1,0,1.5,0.6,1.5,1.6v1.8
		c0,1.1,0.1,1.3,1.1,1.4c0.4,0,0.8,0,1.2-0.2c0.7-0.3,1.3-0.3,1.6,0.5c0.4,0.8,0.2,1.4-0.5,1.8s-1.7,0.6-3.1,0.6
		C254.3,68.5,253.7,68.1,253.7,65.7z M252.9,74.8c0.8-0.9,1.5-1.9,2.1-3c0.1-0.2,0-0.4-0.2-0.4h-4.9
		C250.6,72.9,251.6,73.9,252.9,74.8z"/>
	<path fill="#FFFFFF" d="M286.9,70.9c0,0.7-0.4,1-1,1H282c-0.5,1.4-1.2,2.6-2,3.7c1.6,0.4,3.2,1,4.6,1.5c1.2,0.5,1.5,1.4,1.1,2.5
		s-1.4,1.4-2.6,0.8c-1.7-0.9-3.6-1.8-5.6-2.6c-3,2-7,2.9-11.9,3c-0.6,0-1-0.3-1-0.8c0-0.6,0.2-0.9,0.9-0.9c3.9-0.4,6.8-1.2,8.9-2.5
		c-1.1-0.4-2.2-0.7-3.3-1c-0.3,0.3-0.5,0.6-0.7,0.9c-0.7,0.7-1.4,0.8-2.1,0.3c-0.7-0.6-0.7-1.3-0.1-2.1c0.6-0.9,1.3-1.8,1.9-2.8
		h-4.7c-0.6,0-1-0.4-1-1s0.3-1,1-1h6c0.3-0.6,0.7-1.1,1-1.6c0.1-0.1,0.2-0.3,0.3-0.4H268c-1,0-1.5-0.6-1.5-1.6v-4.1
		c0-1,0.5-1.6,1.5-1.6h3.6v-1.9h-5.7c-0.6,0-1-0.4-1-1c0-0.7,0.3-1,1-1h19.6c0.6,0,1,0.4,1,1c0,0.7-0.3,1-1,1h-5.7v1.9h3.6
		c1,0,1.5,0.6,1.5,1.6v4.1c0,1-0.5,1.6-1.5,1.6H275c0.5,0.5,0.6,1.2,0.1,2l0,0h10.8C286.5,69.8,286.9,70.2,286.9,70.9z M271.7,62.4
		h-1.9c-0.2,0-0.3,0.1-0.3,0.3v2.8c0,0.2,0.1,0.3,0.3,0.3h1.9V62.4z M278.4,71.9h-4.6c-0.5,0.7-1,1.5-1.5,2.2
		c1.4,0.1,2.9,0.4,4.3,0.7C277.3,74,277.9,73.1,278.4,71.9z M274.5,60.5h2.2v-1.9h-2.2V60.5z M274.5,65.9h2.2v-3.5h-2.2V65.9z
		 M279.5,65.9h1.9c0.2,0,0.3-0.1,0.3-0.3v-2.8c0-0.2-0.1-0.3-0.3-0.3h-1.9V65.9z"/>
	<path fill="#FFFFFF" d="M297.2,78c0,2.1-1.7,2.7-4,1.7c-0.4-0.2-0.5-0.5-0.4-0.9s0.3-0.5,0.7-0.4c1.4,0.2,1.5,0.1,1.5-0.8v-1.8
		h-1.9c-0.3,2-1,3.4-2.1,4.6c-0.3,0.4-0.6,0.4-1,0.1c-0.3-0.2-0.4-0.6-0.2-1c0.9-1.7,1.2-3.4,1.2-6.9v-3.4c0-1,0.5-1.5,1.4-1.5h3.1
		c0.9,0,1.4,0.6,1.4,1.5V78H297.2z M290.3,58.2c0-0.5,0.3-0.8,0.8-0.8h8.5v-0.7c0-1,0.6-1.6,1.7-1.6s1.7,0.6,1.7,1.6v0.7h8.5
		c0.5,0,0.8,0.3,0.8,0.8c0,0.6-0.3,0.9-0.8,0.9h-15.4v0.4c0,0.5,0.3,0.7,1.1,0.7c2.3,0.1,6,0.1,8.4-0.1c1.6-0.1,2.2-0.2,2.9-0.5
		c0.6-0.3,1.1-0.2,1.4,0.3c0.3,0.6,0.3,1.2-0.4,1.5c-0.9,0.5-1.7,0.6-3.7,0.6c-2.4,0.1-5.9,0.1-8.6,0.1c-3.2-0.1-4-0.3-4-2.3v-0.7
		h-2C290.6,59.1,290.3,58.8,290.3,58.2z M308.2,67h-13.8c-0.9,0-1.4-0.5-1.4-1.5v-1.2c0-1,0.5-1.5,1.4-1.5h13.8
		c0.9,0,1.4,0.6,1.4,1.5v1.2C309.7,66.5,309.2,67,308.2,67z M295.1,74.2v-1.6h-1.6v0.1c0,0.6,0,1-0.1,1.5H295.1z M293.5,69.7V71h1.6
		v-1.3c0-0.2-0.1-0.3-0.3-0.3h-1.1C293.6,69.4,293.5,69.5,293.5,69.7z M306.6,64.6c0-0.2-0.1-0.3-0.3-0.3h-10.1
		c-0.2,0-0.3,0.1-0.3,0.3v0.5c0,0.2,0.1,0.3,0.3,0.3h10.1c0.2,0,0.3-0.1,0.3-0.3V64.6z M300.5,78.5c-0.7,0.9-1.7,1.8-2.6,2.3
		c-0.3,0.2-0.7,0.2-0.8-0.1c-0.2-0.3-0.2-0.6,0.2-0.9c0.7-0.7,1.3-1.6,1.8-2.5c0.3-0.6,0.9-0.7,1.4-0.4
		C300.9,77.3,301,77.9,300.5,78.5z M302.5,67.7c0.9,0,1.4,0.6,1.4,1.5v5.9c0,1-0.5,1.6-1.5,1.6h-3c-1,0-1.5-0.6-1.5-1.6v-5.9
		c0-1,0.5-1.5,1.4-1.5H302.5z M300,69.5v0.7h1.8v-0.7c0-0.2-0.1-0.3-0.3-0.3h-1.3C300.1,69.2,300,69.4,300,69.5z M301.8,71.6H300
		v0.9h1.8V71.6z M301.8,74.9V74H300v0.9c0,0.2,0.1,0.3,0.3,0.3h1.3C301.7,75.2,301.8,75.1,301.8,74.9z M311,80.6
		c-2.1,0-2.6-0.4-2.6-2.4v-1.7c-0.2,0-0.4-0.2-0.6-0.4l-0.5-0.6c-0.4,2.4-1.4,4.1-3,5.2c-0.4,0.3-0.7,0.3-0.9-0.1
		c-0.2-0.2-0.2-0.5,0-0.8c-0.3,0.1-0.5-0.1-0.8-0.4l-1.1-1.5c-0.2-0.3-0.2-0.6,0-0.9s0.5-0.3,0.8-0.1c0.5,0.3,1.1,0.7,1.6,1.2
		c0.2,0.2,0.3,0.4,0.3,0.6c0.8-1.4,1.1-2.9,1.1-5.3c-0.2-0.2-0.5-0.4-0.7-0.7c-0.4-0.4-0.4-0.7-0.2-1c0.2-0.4,0.5-0.4,0.9-0.2v-2.2
		H305c-0.5,0-0.8-0.3-0.8-0.9c0-0.5,0.3-0.9,0.8-0.9h4.2c0.9,0,1.4,0.6,1.4,1.5v8.4c0,0.6,0.1,0.7,0.4,0.7c0.4,0,0.4-0.2,0.4-3.2
		c0-0.5,0.3-0.7,0.6-0.7c0.3,0,0.5,0.2,0.6,0.6C313.2,79.7,312.8,80.5,311,80.6z M308.3,73.8v-4.1c0-0.2-0.1-0.3-0.3-0.3h-0.6v3V73
		C307.8,73.3,308,73.5,308.3,73.8z"/>
</g>
<path fill="none" stroke="#63C19C" stroke-width="0.5522" stroke-linecap="round" stroke-linejoin="round" d="M16.6,80
	c0,0-5.3-13-5.3-30.5c0-12.4,5.6-29.1,5.6-29.1"/>
<path opacity="0.5" fill="#63B69D" enable-background="new    " d="M12.8,36.8c0,0,13.5-2.3,29.1-2c17.6,0.3,65,11.2,65,11.2
	S60.5,31.6,43,31.4C27.4,31.1,12.8,36.8,12.8,36.8"/>
<path opacity="0.5" fill="#63B69D" enable-background="new    " d="M11.5,54.6c0,0,13,0.6,28.6,0.9c17.6,0.3,66.7,5.5,66.7,5.5
	s-48-8.6-65.6-8.9C25.7,51.8,11.5,54.6,11.5,54.6"/>
<path opacity="0.5" fill="#63B69D" enable-background="new    " d="M13.3,67.9c0,0,16.4,7.5,32,7.7c17.6,0.3,63.3-2,63.3-2
	S64,72.5,46.4,72.2C30.8,72,13.3,67.9,13.3,67.9"/>
<path fill="none" stroke="#63C19C" stroke-width="0.5522" stroke-linecap="round" stroke-linejoin="round" d="M107.8,25.9
	c0,0-1.2,16.7-0.9,25.9c0.3,9.2,2.6,29.6,2.6,29.6"/>
<path fill="none" stroke="#63C19C" stroke-width="0.8223" stroke-linecap="round" stroke-linejoin="round" d="M106.9,46
	c0,0-46.3-14.4-63.9-14.7c-15.6-0.3-30.2,5.4-30.2,5.4"/>
<path fill="none" stroke="#63C19C" stroke-width="0.8223" stroke-linecap="round" stroke-linejoin="round" d="M106.9,61
	c0,0-48-8.6-65.6-8.9c-15.6-0.3-29.7,2.6-29.7,2.6"/>
<path fill="none" stroke="#63C19C" stroke-width="0.8223" stroke-linecap="round" stroke-linejoin="round" d="M108.6,73.6
	c0,0-44.7-1.1-62.2-1.4c-15.6-0.3-33.1-4.3-33.1-4.3"/>
<path fill="none" stroke="#63C19C" stroke-width="0.5522" stroke-linecap="round" stroke-linejoin="round" d="M15.6,25.3
	c0,0,14.7-5.7,30.3-5.4c17.6,0.3,61.6,13.5,61.6,13.5"/>
<path opacity="0.5" fill="#63B69D" enable-background="new    " d="M102,29.6c-25.6-7.1-45.8-12.3-54.8-12.5
	c-8.4-0.1-23.4,3.7-28.2,5l1.2-2.1c5-1.3,18.4-4.9,27-4.8c9.2,0.2,28.5,4.8,54.3,12L102,29.6z"/>
</svg>
